<svg id="Layer_1" data-name="Layer 1" xmlns="http://www.w3.org/2000/svg" viewBox="0 0 37 33"><defs><style>.cls-1{fill:#00979e;}</style></defs><path class="cls-1" d="M27.86,13.78A2.36,2.36,0,0,0,26,16.11c0,1.75,0,3.51,0,5.27,0,.55-.17.66-.67.63-.71,0-1.43.06-2.13,0a1.92,1.92,0,0,0-1.95,2c.07,2.06,0,4.13,0,6.2a4.12,4.12,0,0,0,.11,1,1.42,1.42,0,0,0,1.78,1,1.5,1.5,0,0,0,1.11-1.55c-.15-1.57,0-3.15-.06-4.72,0-.65.33-.94,1-.94h3.06a2.17,2.17,0,0,0,2.23-2.24c0-1.11,0-2.22,0-3.33V16a1.91,1.91,0,0,0-.23-1A2.31,2.31,0,0,0,27.86,13.78Z"/><path class="cls-1" d="M14.55,22c-.71,0-1.43,0-2.14,0-1,0-.87.12-.87-.84,0-1.71,0-3.43,0-5.14a2.18,2.18,0,0,0-2.2-2.2A2.15,2.15,0,0,0,7,15.89Q7,19.3,7,22.7a2.25,2.25,0,0,0,2.33,2.24h2.87c.85,0,1.09.25,1.1,1.12,0,1.53,0,3.07,0,4.6a1.41,1.41,0,0,0,1.5,1.5,1.29,1.29,0,0,0,1.43-1.45c0-1.16,0-2.32,0-3.47s0-2.36,0-3.54A1.7,1.7,0,0,0,14.55,22Z"/><path class="cls-1" d="M25.06,19.16c0-1-.12-1.17-.9-1.17H13.42c-.83,0-.91.09-.92.92,0,1.07.11,1.22.93,1.22H24.16C24.9,20.13,25.07,19.94,25.06,19.16Z"/><path class="cls-1" d="M9.49,13.29a2.87,2.87,0,0,0,0-5.74,2.76,2.76,0,0,0-2.86,2.82A2.8,2.8,0,0,0,9.49,13.29Z"/><path class="cls-1" d="M28.2,13.29A2.85,2.85,0,0,0,31,10.38a2.75,2.75,0,0,0-2.89-2.81,2.79,2.79,0,0,0-2.82,2.83A2.88,2.88,0,0,0,28.2,13.29Z"/><path class="cls-1" d="M14.39,7.69c.39.3.25.58.09.87s-.51.76-.79,1.19a3.16,3.16,0,0,0,2.44-.52,2.86,2.86,0,0,1,1.76-.49A5.38,5.38,0,0,0,20.82,8a3.63,3.63,0,0,0,1.26-5.64A5.83,5.83,0,0,0,15.71.93C12.58,2.06,11.56,5.53,14.39,7.69ZM20,4.12a.58.58,0,0,1,.62.58.49.49,0,0,1-.51.49c-.33,0-.6-.15-.61-.48A.51.51,0,0,1,20,4.12Zm-2.22,0c.32.09.55.25.56.58s-.24.51-.56.52-.51-.17-.51-.53S17.55,4.19,17.82,4.09Zm-2.24,0a.49.49,0,0,1,.51.5.46.46,0,0,1-.45.56c-.4,0-.59-.17-.61-.51A.52.52,0,0,1,15.58,4.13Z"/></svg>