<svg id="Layer_1" data-name="Layer 1" xmlns="http://www.w3.org/2000/svg" viewBox="0 0 37 33"><defs><style>.cls-1{fill:#00979e;}</style></defs><path class="cls-1" d="M24.24,23.39a1.86,1.86,0,0,0-1-.1,3.6,3.6,0,0,0-1.7.79,3.57,3.57,0,0,1-1.48.74,8.09,8.09,0,0,1-1.3.15,12.42,12.42,0,0,1-2.51-.11,10.39,10.39,0,0,1-2.44-1h.39a20.88,20.88,0,0,1,2.95.19s.06,0,.1,0a.05.05,0,0,0,0,0c.14,0,.28.07.42.09a8.54,8.54,0,0,0,1.75.21,1.33,1.33,0,0,0,1.33-1.22.92.92,0,0,1,0-.37,1.08,1.08,0,0,0-.62-.87,3.93,3.93,0,0,0-1.54-.42s-.08,0-.12,0,0,0,0,0a2.54,2.54,0,0,0-.61-.07s-.09,0-.13,0,.05,0,.06,0l-.09,0a13.69,13.69,0,0,1-2.44-.56c-1.26-.39-2.48-.93-3.73-1.37A8.21,8.21,0,0,0,9,18.83a8.08,8.08,0,0,0-2.39.39,9.13,9.13,0,0,0-3,1.35,23.17,23.17,0,0,0-2.24,2.07c-.46.45-.46.46-.18,1a10.91,10.91,0,0,0,1.74,2.61,4,4,0,0,0,.58.51.38.38,0,0,0,.52,0c.39-.3.8-.58,1.23-.85a3.79,3.79,0,0,1,2.27-.6,5.2,5.2,0,0,1,1.89.5c.91.42,1.78.93,2.67,1.4a5,5,0,0,0,2.26.63c1.28,0,2.56,0,3.83-.08A7.24,7.24,0,0,0,21.09,27a31.45,31.45,0,0,0,3-1.83,1.84,1.84,0,0,0,.52-.52.76.76,0,0,0,.18-.41.57.57,0,0,1,0-.26A.84.84,0,0,0,24.24,23.39Z"/><path class="cls-1" d="M35.89,9.37a11.3,11.3,0,0,0-1.8-2.69,2.63,2.63,0,0,0-.53-.47c-.25-.16-.3-.16-.54,0-.42.31-.85.6-1.29.88a3.63,3.63,0,0,1-1.6.54,4.64,4.64,0,0,1-2.48-.47c-.94-.43-1.84-1-2.75-1.44a5.07,5.07,0,0,0-2.5-.6c-.76,0-1.52,0-2.28,0a15.54,15.54,0,0,0-2,.14,6.36,6.36,0,0,0-2.25.75A31.89,31.89,0,0,0,13,7.79a1.63,1.63,0,0,0-.72.91v.35a.76.76,0,0,0,.37.47,1.62,1.62,0,0,0,1.14.19,3.51,3.51,0,0,0,1.76-.83,3.61,3.61,0,0,1,1.77-.76A16.34,16.34,0,0,1,19.82,8a7.27,7.27,0,0,1,3.39,1.13h-.74a17.66,17.66,0,0,1-2.81-.23,1.05,1.05,0,0,1-.31,0s0,0,.06,0a2.05,2.05,0,0,0-.55-.1s-.08,0-.12,0,0,0,.05,0a4.15,4.15,0,0,0-1.22-.11,1.43,1.43,0,0,0-.76.29,1.29,1.29,0,0,0,.13,2.16,4.17,4.17,0,0,0,1.54.43s.09,0,.13,0-.05,0-.06,0a5.36,5.36,0,0,0,.7.09,16,16,0,0,1,3.52.92c1.13.4,2.24.89,3.39,1.25a5.92,5.92,0,0,0,1.43.32.21.21,0,0,1,.13,0,.09.09,0,0,0-.06,0,.76.76,0,0,0,.21,0,7.91,7.91,0,0,0,2.59-.39,8.63,8.63,0,0,0,3.31-1.6c.46-.4.91-.82,1.34-1.25A9,9,0,0,0,36,10a1.62,1.62,0,0,1,0-.22A1.11,1.11,0,0,0,35.89,9.37Z"/><path class="cls-1" d="M15.28,15.75h-.06c-.13,0-.16-.06-.15-.19a.33.33,0,0,0-.65-.1,6.58,6.58,0,0,0-.14.75.34.34,0,0,0,.27.35.32.32,0,0,0,.38-.21c0-.17.11-.16.24-.13a2.33,2.33,0,0,0,.28.05.3.3,0,0,1,.1,0,.65.65,0,0,1-.12.55l-.53.34.63.15a.2.2,0,0,1,.17.15c.13.35.13.35-.2.54l-.05,0c-.08.07-.14.08-.21,0a.31.31,0,0,0-.45-.09.33.33,0,0,0-.12.45c.11.2.23.4.35.6a.33.33,0,0,0,.43.13.31.31,0,0,0,.17-.43c-.07-.14,0-.18.09-.22s.17-.11.26-.15.07,0,.1,0a.69.69,0,0,1,.27.47c-.06.2-.12.4-.18.63.21-.11.39-.21.57-.29a.16.16,0,0,1,.18,0c.37.16.38.18.25.55v0c0,.16-.11.21-.26.16s-.13,0-.16.1-.08,0-.12,0a.29.29,0,0,0,0,.43s.1,0,.09.07h0c.06,0,.14,0,.19.08s.35.14.53.19a.31.31,0,0,0,.39-.19.28.28,0,0,0-.11-.4c-.19-.08-.16-.19-.09-.33l.08-.21s0-.08.06-.09a.66.66,0,0,1,.51.21l.25.57.26-.59c0-.05,0-.11.11-.13.38-.12.42-.1.55.26l0,0c.06.11.05.18-.09.24a.33.33,0,0,0-.15.41.32.32,0,0,0,.36.21,4.26,4.26,0,0,0,.78-.28.34.34,0,0,0-.22-.62c-.16.05-.21,0-.24-.14a1.66,1.66,0,0,1-.06-.16c0-.08-.13-.19,0-.23s.25-.27.46-.16l.59.29-.19-.63a.17.17,0,0,1,0-.2c.25-.29.24-.29.58-.1l.05,0c.09,0,.12.08.07.19a.33.33,0,0,0,.15.45A.35.35,0,0,0,22,19l.32-.55a.35.35,0,0,0-.09-.46.33.33,0,0,0-.47.08c-.07.1-.12.1-.21,0s-.18-.11-.27-.17-.08,0-.09-.07.18-.44.27-.47a3.78,3.78,0,0,0,.62-.16l-.51-.33a.22.22,0,0,1-.12-.22c0-.36,0-.36.37-.42h0c.12-.05.17,0,.21.12a.32.32,0,0,0,.39.22.34.34,0,0,0,.26-.38c0-.22-.07-.44-.12-.65a.32.32,0,0,0-.38-.3.32.32,0,0,0-.28.38c0,.09,0,.12-.11.13s-.23,0-.35.06a.2.2,0,0,1-.11,0,.68.68,0,0,1-.09-.54l.39-.52-.35,0-.3,0a.2.2,0,0,1-.21-.08c-.23-.29-.24-.29,0-.58l0,0c.05-.09.1-.11.2,0a.32.32,0,0,0,.46-.07.33.33,0,0,0,0-.46L21,13.09a.34.34,0,0,0-.46,0,.32.32,0,0,0,0,.45c.11.1.09.16,0,.24a.81.81,0,0,0-.09.1c-.18.21-.17.2-.42.08a.3.3,0,0,1-.19-.33,4.73,4.73,0,0,0,0-.52l-.05,0c-.13.14-.27.27-.39.41a.18.18,0,0,1-.21.07c-.36-.07-.37-.06-.37-.43,0,0,0,0,0,0s0-.19.17-.2a.32.32,0,0,0,.28-.33.31.31,0,0,0-.27-.32,2.89,2.89,0,0,0-.83,0,.31.31,0,0,0-.26.33.29.29,0,0,0,.26.32c.17,0,.2.08.19.23s0,.11,0,.17.06.2-.07.21-.33.16-.49,0l-.45-.47c0,.24,0,.44,0,.64a.17.17,0,0,1-.1.18c-.33.2-.33.2-.58-.1h0c-.09-.08-.12-.15,0-.26a.31.31,0,0,0,0-.44.32.32,0,0,0-.43-.05,6.71,6.71,0,0,0-.58.48.32.32,0,0,0,0,.45.31.31,0,0,0,.42.08c.13-.09.19-.06.26,0a.39.39,0,0,0,.08.1c.18.21.17.21,0,.42a.33.33,0,0,1-.37.14,1.7,1.7,0,0,0-.51,0v0l.34.46a.24.24,0,0,1,.06.17C15.71,15.78,15.64,15.82,15.28,15.75Zm4.8.42a.52.52,0,1,1,0,1,.52.52,0,0,1,0-1ZM18.39,18a.52.52,0,1,1-1,0,.52.52,0,0,1,1,0Zm-.7-2.87a.53.53,0,0,1,.52.52.53.53,0,1,1-.52-.52Z"/></svg>