<svg xmlns="http://www.w3.org/2000/svg" width="72.919" height="73.365" viewBox="0 0 72.919 73.365">
  <g id="icn_critical_care" transform="translate(-5373.846 490.397)">
    <path id="Subtraction_2" data-name="Subtraction 2" d="M4.778,11.039a4.8,4.8,0,0,1-2.2-.538,15.5,15.5,0,0,0,2.1.138A13.5,13.5,0,0,0,7.1,10.434,4.772,4.772,0,0,1,4.778,11.039ZM2.568,10.5l0,0A4.767,4.767,0,0,1,.021,5.829V6.5l2.1,1.729a5.757,5.757,0,0,0,.445,2.262ZM7.1,10.434l0,0a7.288,7.288,0,0,0,.443-2.166L9.479,6.977l.038-.21A4.79,4.79,0,0,1,7.1,10.431ZM2.3,7.644h0L.022,5.826A4.766,4.766,0,0,1,.3,4.6L.98,1.293c0-.012.183-1.178.981-1.249C2.3.015,2.989,0,4.011,0,5.739,0,7.881.044,7.9.045a.887.887,0,0,1,.767.893c.077.745.453,2.976.566,3.642A4.756,4.756,0,0,1,9.543,6.31l-2,1.3Z" transform="translate(5404.979 -489.897)" fill="#00979e" stroke="rgba(0,0,0,0)" stroke-width="1"/>
    <path id="Subtraction_3" data-name="Subtraction 3" d="M23.03,25.874H15.7a1.231,1.231,0,0,1-1.363-1.2V6.521a1.366,1.366,0,0,1,.03-.284h-.087l-2.724,4.139a1.585,1.585,0,0,1-.1.141,1.62,1.62,0,0,1-1.858.7L1.139,8.765A1.616,1.616,0,0,1,1.617,5.6a1.625,1.625,0,0,1,.481.073l7.29,2.113L13.1,2.146A3.394,3.394,0,0,1,16.485,0h7.709c3.725,0,3.768,3.791,3.768,3.829V5.015a1.369,1.369,0,0,1-.009.157l.008,6.706a1.835,1.835,0,0,0-2.283-.84l-.949.354-.007-5.155h-.357a1.375,1.375,0,0,1,.03.284v5l-6.967,2.6a1.832,1.832,0,0,0-1.038,2.377,1.854,1.854,0,0,0,1.71,1.161,1.791,1.791,0,0,0,.664-.127l5.631-2.1v9.11A1.336,1.336,0,0,1,23.03,25.874ZM18.1,17.221a1.416,1.416,0,0,1-1.308-.887,1.4,1.4,0,0,1,.79-1.816l8.252-3.077a1.4,1.4,0,0,1,1.8,1.865,1.381,1.381,0,0,1-.767.739l-8.253,3.078A1.39,1.39,0,0,1,18.1,17.221Z" transform="translate(5390.643 -477.719)" fill="#00979e" stroke="rgba(0,0,0,0)" stroke-width="1"/>
    <path id="Path_1666" data-name="Path 1666" d="M1618.393,271.392v-6.315h-56.91v6.315h18.378v9.936h-13.53v4.279h45.451v-4.279H1601.64v-9.936Z" transform="translate(3822.166 -707.754)" fill="#00979e"/>
    <path id="Path_1667" data-name="Path 1667" d="M1553.809,137.846a4.772,4.772,0,1,1-6.443-2A4.774,4.774,0,0,1,1553.809,137.846Z" transform="translate(3835.241 -605.95)" fill="#00979e"/>
    <path id="Path_1668" data-name="Path 1668" d="M1673.39,215.46a2.386,2.386,0,0,0,2.08-2.709h0a2.5,2.5,0,0,0-2.855-2l-10.075,1.466a2.383,2.383,0,0,0-2.077,2.711h0a2.494,2.494,0,0,0,2.852,2Z" transform="translate(3744.549 -665.121)" fill="#00979e"/>
    <path id="Path_1669" data-name="Path 1669" d="M1719.49,217.393a2.485,2.485,0,0,0,2.952-1.832h0a2.4,2.4,0,0,0-1.938-2.823l-9.985-2.016a2.481,2.481,0,0,0-2.949,1.834h0a2.393,2.393,0,0,0,1.935,2.824Z" transform="translate(3707.614 -665.075)" fill="#00979e"/>
    <path id="Subtraction_11" data-name="Subtraction 11" d="M18.09,16.963a2.983,2.983,0,0,1-1.6-.483L3.949,8.035A14.5,14.5,0,0,0,2.366,6.967,4.6,4.6,0,0,1,.052,4.05,3.684,3.684,0,0,1,.642,1.428,3.272,3.272,0,0,1,3.359,0,4.522,4.522,0,0,1,5.884.857l13.988,9.426c-.033-.016-.068-.034-.115-.054L11.651,6.921l-.009-.007a.875.875,0,0,0-.106-.085L4.164,2.019A1.832,1.832,0,1,0,2.11,5.054L9.484,9.863a1.751,1.751,0,0,0,.235.127,1.748,1.748,0,0,0,.446.281L18.313,13.6a1.832,1.832,0,0,0,2.425-2.365,1.8,1.8,0,0,0-.494-.7l.174.117a2.815,2.815,0,0,1,.953,1.108l.072.15,6.307-1.2a2.459,2.459,0,0,1,.543-.061,2.377,2.377,0,0,1,.371.028l10.063,1.579a2.285,2.285,0,0,1,1.515.918,2.066,2.066,0,0,1,.365,1.569,2.242,2.242,0,0,1-2.253,1.811,2.377,2.377,0,0,1-.371-.028l-9.614-1.508-.037-.006-9.43,1.8-.045.013A1.949,1.949,0,0,1,18.09,16.963Zm.944-3.65a1.393,1.393,0,0,1-.554-.115l-8.15-3.325a1.377,1.377,0,0,1-.354-.23L9.925,9.61a1.411,1.411,0,0,1-.2-.108L2.348,4.695A1.4,1.4,0,0,1,3.926,2.378L11.3,7.188a.392.392,0,0,1,.054.045l.07.06,8.166,3.334a1.377,1.377,0,0,1,.746.764,1.4,1.4,0,0,1-1.3,1.921Z" transform="translate(5389.261 -463.288)" fill="#00979e" stroke="rgba(0,0,0,0)" stroke-width="1"/>
    <path id="Subtraction_5" data-name="Subtraction 5" d="M42.95,6.078H3.039A3.039,3.039,0,0,1,3.039,0H42.95a3.039,3.039,0,1,1,0,6.078Z" transform="translate(5400.274 -446.066)" fill="#00979e" stroke="rgba(0,0,0,0)" stroke-width="1"/>
    <path id="Subtraction_4" data-name="Subtraction 4" d="M28.694,22.392a3.029,3.029,0,0,1-1.626-.476L1.409,5.606A3.039,3.039,0,1,1,4.669.476l25.66,16.31a3.041,3.041,0,0,1-1.635,5.606Z" transform="translate(5374.531 -462.378)" fill="#00979e" stroke="rgba(0,0,0,0)" stroke-width="1"/>
    <path id="Subtraction_8" data-name="Subtraction 8" d="M3.353,6.705A3.353,3.353,0,1,1,6.705,3.353,3.356,3.356,0,0,1,3.353,6.705Zm0-4.317a.928.928,0,1,0,.927.929A.929.929,0,0,0,3.353,2.389Z" transform="translate(5390.12 -424.42)" fill="#00979e" stroke="rgba(0,0,0,0)" stroke-width="1"/>
    <path id="Subtraction_9" data-name="Subtraction 9" d="M3.353,6.705A3.353,3.353,0,1,1,6.707,3.353,3.356,3.356,0,0,1,3.353,6.705Zm0-4.315a.927.927,0,1,0,.927.927A.928.928,0,0,0,3.353,2.39Z" transform="translate(5425.609 -424.237)" fill="#00979e" stroke="rgba(0,0,0,0)" stroke-width="1"/>
  </g>
</svg>
