<svg xmlns="http://www.w3.org/2000/svg" width="37.626" height="71.865" viewBox="0 0 37.626 71.865">
  <g id="icn_diabetes_care" transform="translate(-2275.064 -1464.199)">
    <path id="Path_1702" data-name="Path 1702" d="M87.215,174.414H85.469v3.01H80.883v-3.01H79.135a14.888,14.888,0,0,0-14.772,14.92v34.641A14.888,14.888,0,0,0,79.135,238.9h8.08a14.888,14.888,0,0,0,14.774-14.92V189.334A14.888,14.888,0,0,0,87.215,174.414ZM74.693,210.752H70.6a1.136,1.136,0,0,1,0-2.272h4.1a1.136,1.136,0,0,1,0,2.272Zm10.53,0H81.129a1.136,1.136,0,0,1,0-2.272h4.094a1.136,1.136,0,0,1,0,2.272Zm10.512,0H91.641a1.136,1.136,0,0,1,0-2.272h4.094a1.136,1.136,0,0,1,0,2.272Zm1.71-8.012a2.549,2.549,0,0,1-2.541,2.568H71.467a2.563,2.563,0,0,1-2.559-2.568v-15.6a2.579,2.579,0,0,1,2.559-2.584H94.9a2.565,2.565,0,0,1,2.541,2.584Z" transform="translate(2210.7 1297.169)" fill="#00979e" fill-rule="evenodd"/>
    <path id="Path_1703" data-name="Path 1703" d="M71.787,173.029v5.733h3.82v-5.733Zm1.05,4.585h-.43v-4.3h.43Zm1.075,0h-.43v-4.3h.43Zm1.075,0h-.428v-4.3h.428Z" transform="translate(2220.179 1295.4)" fill="#00979e" fill-rule="evenodd"/>
    <path id="Path_1704" data-name="Path 1704" d="M73.214,171.171s-2.288,3.734,0,3.734S73.155,171.23,73.214,171.171Z" transform="translate(2220.703 1293.028)" fill="#00979e" fill-rule="evenodd"/>
  </g>
</svg>
