<svg xmlns="http://www.w3.org/2000/svg" width="49.803" height="73.221" viewBox="0 0 49.803 73.221">
  <path id="icn_doctor_consultation" d="M41.236,71.684,29.832,51.55s.1-8.223-7.462-7.926V29.368l-4.563,4.287v4.886l-6.927.018V31.267L24.094,16.7l12.283,2.686L48.652,38.559s1.41,6.651-5.205,4.424L36.052,32.216,35.9,44.274,47.4,67.868s-.115,4.352-3.7,4.353A6.783,6.783,0,0,1,41.236,71.684ZM2.942,70.848A2.949,2.949,0,0,1,0,67.886V48.749A2.957,2.957,0,0,1,2.942,45.78H25.187a2.958,2.958,0,0,1,2.941,2.969V67.886a2.949,2.949,0,0,1-2.941,2.961Zm.22-21.314V66.748a.985.985,0,0,0,.981.98H24.849a.984.984,0,0,0,.978-.98V49.534a.986.986,0,0,0-.978-1H4.143A.988.988,0,0,0,3.162,49.534ZM11.77,64.8V60.519H7.793V56.1H11.77V51.835h4.752V56.1h4v4.417h-4V64.8Zm5.344-20.35V43.369a.976.976,0,0,0-.981-.986H11.864a.984.984,0,0,0-.984.986v1.078H9.216V41.775a.989.989,0,0,1,.974-.989h7.963a.986.986,0,0,1,.975.989v2.673ZM23.792,7.408a7.361,7.361,0,1,1,7.362,7.413A7.386,7.386,0,0,1,23.792,7.408Z" transform="translate(0.5 0.5)" fill="#00979e" stroke="rgba(0,0,0,0)" stroke-width="1"/>
</svg>
