<svg xmlns="http://www.w3.org/2000/svg" width="52.866" height="57.527" viewBox="0 0 52.866 57.527">
  <path id="icn_physiotherapy" d="M1.826,56.527A1.839,1.839,0,0,1,0,54.688V50.554a1.834,1.834,0,0,1,1.826-1.831H12.489a5.551,5.551,0,0,0,3.195-1.234L23.5,40.423a5.511,5.511,0,0,1,3.19-1.228h23.34a1.837,1.837,0,0,1,1.832,1.832v8.291a1.838,1.838,0,0,1-1.832,1.834H26.694a5.528,5.528,0,0,0-3.19,1.225L20.273,55.3a5.532,5.532,0,0,1-3.19,1.231Zm.582-19.19A7.277,7.277,0,1,1,9.691,44.61,7.284,7.284,0,0,1,2.408,37.337Zm46.914-1.21H35.778v-4.27c0-1.011-.69-1.384-1.535-.832l-4.828,3.138a2.1,2.1,0,0,1-2.7-.417L24.8,31.478a2.1,2.1,0,0,1,.12-2.725l13.14-12.885a5.008,5.008,0,0,1,3.114-1.31H42.6a3.037,3.037,0,0,1,2.564,1.674l5.266,12.111a10.706,10.706,0,0,1,.719,3.515V34.3c0,.031-.006.064-.009.1l.009.051v1.681ZM27.247,7.277a7.276,7.276,0,1,1,7.277,7.281A7.278,7.278,0,0,1,27.247,7.277Z" transform="translate(0.5 0.5)" fill="#00979e" stroke="rgba(0,0,0,0)" stroke-width="1"/>
</svg>
