<svg xmlns="http://www.w3.org/2000/svg" width="54.184" height="69.954" viewBox="0 0 54.184 69.954">
  <g id="icn_elder_care" transform="translate(-5382.306 783.391)">
    <path id="Path_1520" data-name="Path 1520" d="M565.857,386.342l-.166,4.812-.913,23.936-10.227-1.011-7.664-.948c1.966-26.4,9.386-32.461,9.386-32.461L565,385.9Z" transform="translate(4835.953 -1149.054)" fill="#00979e" stroke="rgba(0,0,0,0)" stroke-width="1" fill-rule="evenodd"/>
    <path id="Path_1521" data-name="Path 1521" d="M556.722,395.108a3.444,3.444,0,1,0-6.873.174h-.009l.009.1.582,23.254,0,.1h.011a3.44,3.44,0,1,0,6.864-.172v-.1l-.586-23.265Z" transform="translate(4839.436 -1136.242)" fill="#00979e" stroke="rgba(0,0,0,0)" stroke-width="1"/>
    <path id="Path_1522" data-name="Path 1522" d="M567.109,395.686a3.786,3.786,0,0,0-7.387,1.188l0,.076,3.232,20.1.02.078a3.786,3.786,0,0,0,7.387-1.183h0l-.017-.083-3.23-20.094Z" transform="translate(4851.058 -1134.439)" fill="#00979e" stroke="rgba(0,0,0,0)" stroke-width="1"/>
    <path id="Path_1523" data-name="Path 1523" d="M566.761,387.041a2.148,2.148,0,1,0-4.073,1.2h-.009l.039.063s1.109,6.62,1.484,7.95c.969,3.375,5.363,6.72,5.731,6.9a3.289,3.289,0,0,0,2.556.451c1.109-.329,1.656-2.506.412-3.121a11.053,11.053,0,0,1-4.685-5.234c-.732-1.713-1.438-8.148-1.438-8.148Z" transform="translate(4854.463 -1143.721)" fill="#00979e" stroke="rgba(0,0,0,0)" stroke-width="1"/>
    <path id="Path_1524" data-name="Path 1524" d="M555.61,382.815a2.15,2.15,0,1,0-.49,4.221h.052s6.54,1.576,7.908,1.737a45.158,45.158,0,0,0,7.771.1l.057,0a2.149,2.149,0,1,0,.493-4.217l-.057-.007a22.134,22.134,0,0,1-7.612.052c-1.833-.257-8.065-1.879-8.065-1.879Z" transform="translate(4843.036 -1146.541)" fill="#00979e" stroke="rgba(0,0,0,0)" stroke-width="1"/>
    <path id="Path_1525" data-name="Path 1525" d="M565.078,380.655a6.808,6.808,0,1,1-6.969-6.64,6.787,6.787,0,0,1,6.969,6.64" transform="translate(4841.352 -1156.904)" fill="#00979e" stroke="rgba(0,0,0,0)" stroke-width="1"/>
    <path id="Path_1526" data-name="Path 1526" d="M574.821,383.4a6.107,6.107,0,1,1-6.108-6.115,6.1,6.1,0,0,1,6.108,6.115" transform="translate(4854.49 -1153.046)" fill="#00979e" stroke="rgba(0,0,0,0)" stroke-width="1"/>
    <path id="Path_1527" data-name="Path 1527" d="M571.7,396.821s3.8-8.211,2.6-10.964-6.187-6.241-12.768,3.4c-6.688,9.808-4.234,18.237-2.741,20.427,0,0,1,2,4.631,3.182,2.654.85,7.337-1.586,8.281-16.047" transform="translate(4847.988 -1146.414)" fill="#00979e" stroke="rgba(0,0,0,0)" stroke-width="1"/>
    <path id="Path_1529" data-name="Path 1529" d="M576.764,418.02l-10.127-23.661s0-3.528,3.511-1.7Z" transform="translate(4859.242 -1135.536)" fill="#00979e" stroke="rgba(0,0,0,0)" stroke-width="1"/>
  </g>
</svg>
