<svg xmlns="http://www.w3.org/2000/svg" width="72.528" height="54.649" viewBox="0 0 72.528 54.649">
  <path id="icn_medical_equipment" d="M3.576,53.649A3.577,3.577,0,0,1,0,50.074V3.572A3.572,3.572,0,0,1,3.576,0H67.954a3.571,3.571,0,0,1,3.575,3.572v46.5a3.576,3.576,0,0,1-3.575,3.575Zm-1.01-2.567H60.012V2.567H2.567ZM60.688,37.555a4.582,4.582,0,1,0,4.58-4.59A4.58,4.58,0,0,0,60.688,37.555Zm0-10.733a4.582,4.582,0,1,0,4.58-4.58A4.583,4.583,0,0,0,60.688,26.822Zm0-10.73a4.582,4.582,0,1,0,4.58-4.586A4.583,4.583,0,0,0,60.688,16.092Zm-5.1,31.076H6.964V6.647H55.592v40.52h0ZM24.686,27V39.437a1.377,1.377,0,0,0,2.27,1.042l.018-.015a.22.22,0,0,0,.048-.051l.015-.012a1.3,1.3,0,0,0,.322-.488L34.9,20.305V32.231a1.364,1.364,0,0,0,1.27,1.361,1.217,1.217,0,0,0,.194.015,1.351,1.351,0,0,0,1.271-.882l3.139-7.5,10.8.323a1.52,1.52,0,0,0,0-3.041l-11.626.022c-.033,0-.067,0-.1,0a1.374,1.374,0,0,0-1.291.876l-.918,2.2V13.008a1.354,1.354,0,0,0-1.129-1.348,1.454,1.454,0,0,0-.28-.028,1.356,1.356,0,0,0-1.277.881L27.429,32.056V20.21a2.28,2.28,0,0,0-.024-.31,1.381,1.381,0,0,0-.862-1.007,1.347,1.347,0,0,0-.486-.09,1.384,1.384,0,0,0-1.283.884l-3.124,7.48-11.234.567a.643.643,0,0,0,0,1.286l11.963.856a1.34,1.34,0,0,0,1.469-.866L24.683,27ZM62.7,37.554a2.567,2.567,0,1,1,2.568,2.568A2.57,2.57,0,0,1,62.7,37.554Zm0-10.732A2.567,2.567,0,1,1,65.267,29.4,2.566,2.566,0,0,1,62.7,26.822Zm0-10.73a2.567,2.567,0,1,1,2.568,2.57A2.569,2.569,0,0,1,62.7,16.092Z" transform="translate(0.5 0.5)" fill="#00979e" stroke="rgba(0,0,0,0)" stroke-width="1"/>
</svg>
