<svg xmlns="http://www.w3.org/2000/svg" width="66.205" height="73.019" viewBox="0 0 66.205 73.019">
  <path id="icn_mother_baby_care" d="M28.984,71.96a12.348,12.348,0,0,1-3.857-.984c-7.636-2.634-13.367-7.406-16.652-14.9a3.8,3.8,0,0,0-.294-.488C6.194,58.3,4.058,60.667,0,59.814c1.36-.425,2.572-.613,3.494-1.461a7.556,7.556,0,0,0,2.337-5.244c.239-2.966-.212-5.918-.2-8.883.018-8.895.642-17.718,4.229-26C13.79,9.163,20.454,2.938,30.116.509c6.482-1.629,11.9.736,16.065,5.907A8.174,8.174,0,0,0,48.074,8.2c2.922,1.916,3.879,4.848,4.168,8.146.22,2.488.092,5.011.706,7.463a11.123,11.123,0,0,0,3.885,6.261c3.2,2.525,5.63,5.541,6.529,9.637a16.015,16.015,0,0,1-1,9.8A38.992,38.992,0,0,1,48.241,66.528c-.527.376-1.332,1.166-1.793.592-.44-.541.5-1.19.933-1.68A28.259,28.259,0,0,0,51.743,59.5a9.739,9.739,0,0,0,.821-6.811A4.959,4.959,0,0,1,53.79,47.86a12.035,12.035,0,0,0,3.494-8.591,8.4,8.4,0,0,0-7.219-7.685,9.536,9.536,0,0,0-7.316,1.252c-.2.135-.532.4-.638.141a3.718,3.718,0,0,1-.22-1.457c0-.322.325-.463.66-.4.284.051.559.163.848.2.714.1,1.14-.19,1.127-.956a7.086,7.086,0,0,0-.106-1.623,4.8,4.8,0,0,1,1.251-4.616,7.927,7.927,0,0,0,.834-9.119c-.124-.22-.22-.493-.493-.517-.341-.027-.359.31-.427.521-.957,3.093-3.284,4.819-6.066,6.109-3.27,1.509-6.83,2.215-10.1,3.692-7.083,3.206-11.013,8.757-12.111,16.409a32.053,32.053,0,0,0,.136,6.2C14.989,39.6,16.894,32.45,21.1,25.655a3.635,3.635,0,0,0-1.36,1.566c-5.177,8.443-6.959,17.494-4.1,27.085,1.911,6.4,6.087,10.819,12.824,12.461,3.114.761,5.822-1.267,5.245-4.338l.108-.206c.7.72.812,1.573.217,3.006-1.384,3.323-4.356,3.614-7.638,3.75,1.137.619,2.08,1.1,2.988,1.654.366.22.92.459.724,1.022A.516.516,0,0,1,29.55,72C29.362,72,29.159,71.96,28.984,71.96Zm12.927-16.1a33.723,33.723,0,0,0-7.237-7.994,14.46,14.46,0,0,1-5.389-10.317A7.4,7.4,0,0,1,30.3,33.244c.865-1.511,2.114-1.624,3.144-.241a21.057,21.057,0,0,0,4.811,4.569c2.357,1.644,4.2.9,4.562-1.96.152-1.171.42-1.6,1.632-1.177.889.312,1.346-.193,1.426-1.091.018-.288-.116-.75.427-.683.267.038.622.135.73.329.172.287-.244.415-.376.633-1.507,2.421-2.559,4.95-1.671,7.857a2.989,2.989,0,0,1-1.661,4c-1.066.525-1.516,1.012-.585,2.236.659.879-.287,2.173.124,3.28.548,1.47.936,3,1.587,4.412a2.4,2.4,0,0,0,2.3,1.1c1.083.018,2.17,0,3.257,0A62.5,62.5,0,0,0,43.2,62.349C43.939,59.622,43.044,57.711,41.911,55.861Z" transform="translate(1.981 0.519)" fill="#00979e" stroke="rgba(0,0,0,0)" stroke-width="1"/>
</svg>
