<svg xmlns="http://www.w3.org/2000/svg" width="23.146" height="68.049" viewBox="0 0 23.146 68.049">
  <path id="icn_nursing" d="M4.214,67c0-1.128,1.985-2.146,3.147-2.589L5.215,53.579H0c0-9.33,1.274-16.149,3.327-21.045L.765,27.915a1.729,1.729,0,0,1-.181-.771V16.9a2.067,2.067,0,0,1,1.758-1.924l2.967-.587v.595a1.763,1.763,0,0,0,.658,1.345l4.362,3.865v4.978A1.6,1.6,0,0,0,9.2,26.632a1.724,1.724,0,0,0,1.844,1.588A1.733,1.733,0,0,0,12.9,26.632a1.612,1.612,0,0,0-1.133-1.465V20.19l4.357-3.865a1.755,1.755,0,0,0,.651-1.345v-.6l3.028.6A2.071,2.071,0,0,1,21.567,16.9V27.144a1.715,1.715,0,0,1-.185.771l-2.56,4.62c2.052,4.9,3.323,11.715,3.323,21.045H16.927L14.779,64.415c1.17.443,3.156,1.461,3.156,2.589Zm-.4-27.419a45.632,45.632,0,0,0-1.049,7.763H19.313a45.535,45.535,0,0,0-1.047-7.763,1.527,1.527,0,0,0-1.53-1.27H13.719v-.529a2.168,2.168,0,0,0,1.431-1.031c0-.044,0-.086,0-.131a2.044,2.044,0,0,0-2.179-1.874,2.452,2.452,0,0,0-1.351.4H10.459a2.436,2.436,0,0,0-1.347-.4,2.049,2.049,0,0,0-2.188,1.874c0,.044,0,.086.005.131a2.168,2.168,0,0,0,1.432,1.031v.529H5.348A1.535,1.535,0,0,0,3.813,39.585Zm6.324,5.9V43.614H7.975V42.076h2.162v-1.86h1.8v1.86h2.168v1.537H11.939v1.867ZM9.023,38.315v-.469a2.153,2.153,0,0,0,2.019-1.379,2.148,2.148,0,0,0,2.021,1.379v.469ZM10.543,18.6v0L6.993,15.433a.57.57,0,0,1-.225-.445V14.1l.107-.023,1.218-1.047,2.493,2.137-1.164,1a.254.254,0,0,0,0,.395.363.363,0,0,0,.454,0l1.172-1h0l1.173,1a.37.37,0,0,0,.459,0,.255.255,0,0,0,0-.395l-1.172-1L14,13.026l1.208,1.038.117.023v.9a.575.575,0,0,1-.222.445l-3.554,3.174v0a.78.78,0,0,1-.5.176A.808.808,0,0,1,10.543,18.6ZM5.8,7.653A4.093,4.093,0,0,1,6.714,5.1L5.329,2.51,11.047,0l5.8,2.51L15.506,5.023a4.115,4.115,0,0,1,.972,2.63c0,2.521-2.386,4.569-5.337,4.574S5.8,10.173,5.8,7.653ZM9.738,2.807h.847v.731h.907V2.807h.847V2.032h-.847V1.3h-.907v.736H9.738Z" transform="translate(0.5 0.545)" fill="#00979e" stroke="rgba(0,0,0,0)" stroke-width="1"/>
</svg>
