<svg id="Layer_1" data-name="Layer 1" xmlns="http://www.w3.org/2000/svg" viewBox="0 0 37 33"><defs><style>.cls-1{fill:#00979e;}</style></defs><path class="cls-1" d="M27,25a3.17,3.17,0,0,0-.35-.85l-2.73-4.6-1,5H24a.26.26,0,0,1,.26.26.26.26,0,0,1-.26.26H20.26a1.79,1.79,0,0,0,0,3.58h4.31v0A3,3,0,0,0,27,25Z"/><path class="cls-1" d="M5.75,27.56a2,2,0,0,0,1,.27l.37,0,.58-.09,7.11-3.59a1.38,1.38,0,0,0,.71-.93,1.74,1.74,0,0,0-.27-1.41,1.66,1.66,0,0,0-2.25-.46L9.13,23.24a.26.26,0,0,1-.35-.12.25.25,0,0,1,.12-.34l3.9-1.9a2.18,2.18,0,0,1,2.93.61,3.13,3.13,0,0,1,.19.36l.51-2.67a.27.27,0,0,1,.26-.21h6.84l-1.19-2a3.54,3.54,0,0,0-3-1.73h-9.2a3.51,3.51,0,0,0-3.4,2.62L4.77,25.22A2.07,2.07,0,0,0,5.75,27.56Z"/><path class="cls-1" d="M8.07,28.14,8,30.32a.54.54,0,0,0,.54.56h11.7a.54.54,0,0,0,.53-.54V29.19H14.83a.25.25,0,0,1-.2-.09.23.23,0,0,1-.05-.21l.86-4.53a1.41,1.41,0,0,1-.35.23Z"/><path class="cls-1" d="M32.46,2.27h-9a2,2,0,0,0-1.94,1.95v6.31a2,2,0,0,0,1.94,2h.45v3.36a.24.24,0,0,0,.15.23.18.18,0,0,0,.1,0,.27.27,0,0,0,.17-.06l4.19-3.55h4a2,2,0,0,0,1.94-2V4.22A2,2,0,0,0,32.46,2.27ZM30.7,8.52a2.12,2.12,0,0,1-2.48,1.58L28.08,10l-.1.05a2.12,2.12,0,0,1-2.52-1.52,2.11,2.11,0,0,1,.89-2.81,1.47,1.47,0,0,1,.88,0,3.07,3.07,0,0,0,.53.07L27,4.49a.27.27,0,0,1,.09-.36.26.26,0,0,1,.35.09l.87,1.43a.56.56,0,0,1,0,.12q.32,0,.63-.09a1.52,1.52,0,0,1,.79.05A2.11,2.11,0,0,1,30.7,8.52Z"/><circle class="cls-1" cx="14.65" cy="10.39" r="4.3" transform="translate(-1.92 3.47) rotate(-12.69)"/><path class="cls-1" d="M18,26.89a2.31,2.31,0,0,1,2.3-2.31h2.12l1-5.09H16.9l-1.76,9.19h3.68A2.32,2.32,0,0,1,18,26.89Z"/></svg>