<svg xmlns="http://www.w3.org/2000/svg" width="69.576" height="66.733" viewBox="0 0 69.576 66.733">
  <g id="icn_trained_attendant" transform="translate(-5043.133 777.673)">
    <path id="Path_1511" data-name="Path 1511" d="M436.947,380.187a6.738,6.738,0,1,1-6.738-6.738,6.734,6.734,0,0,1,6.738,6.738" transform="translate(4629.752 -1150.622)" fill="#00979e" stroke="rgba(0,0,0,0)" stroke-width="1"/>
    <path id="Path_1512" data-name="Path 1512" d="M433.465,427.636a2.636,2.636,0,0,1-2.618,2.579H430a2.641,2.641,0,0,1-2.623-2.579s-3.753-19.93-4.99-29.908c-1.286-10.294,2.094-17.491,4.869-17.491h5.719a2.525,2.525,0,0,1,2.521,2.572Z" transform="translate(4627.944 -1141.655)" fill="#00979e" stroke="rgba(0,0,0,0)" stroke-width="1"/>
    <path id="Path_1513" data-name="Path 1513" d="M458.16,411.392a2.649,2.649,0,0,1-1.147,3.493l-.747.39a2.64,2.64,0,0,1-3.516-1.084l-10.883-19.515a2.539,2.539,0,0,1,1.063-3.456l2.284-1.172a2.515,2.515,0,0,1,3.423,1.112Z" transform="translate(4653.651 -1129.075)" fill="#00979e" stroke="rgba(0,0,0,0)" stroke-width="1"/>
    <path id="Path_1514" data-name="Path 1514" d="M449.168,383.09a6.736,6.736,0,1,1-6.735-6.738,6.739,6.739,0,0,1,6.735,6.738" transform="translate(4645.902 -1146.787)" fill="#00979e" stroke="rgba(0,0,0,0)" stroke-width="1"/>
    <path id="Rectangle_179" data-name="Rectangle 179" d="M.741,0h12.73a.741.741,0,0,1,.741.741v3.3a.739.739,0,0,1-.739.739H.74A.74.74,0,0,1,0,4.035V.741A.741.741,0,0,1,.741,0Z" transform="translate(5059.159 -750.511)" fill="#00979e" stroke="rgba(0,0,0,0)" stroke-width="1"/>
    <path id="Rectangle_180" data-name="Rectangle 180" d="M.74,0H13.473a.739.739,0,0,1,.739.739v3.3a.74.74,0,0,1-.74.74H.74A.74.74,0,0,1,0,4.035V.74A.74.74,0,0,1,.74,0Z" transform="translate(5086.129 -746.314)" fill="#00979e" stroke="rgba(0,0,0,0)" stroke-width="1"/>
    <path id="Path_1515" data-name="Path 1515" d="M427.3,395.67l-7.281,8.356a2.6,2.6,0,0,0,.323,3.644l.648.541a2.66,2.66,0,0,0,3.679-.253l4.159-4.148Z" transform="translate(4624.399 -1121.268)" fill="#00979e" stroke="rgba(0,0,0,0)" stroke-width="1"/>
    <path id="Path_1516" data-name="Path 1516" d="M443.917,416.13a12.716,12.716,0,0,1-2.648-25.153v-3.3a15.972,15.972,0,1,0,18.626,15.741h-3.259a12.709,12.709,0,0,1-12.719,12.714" transform="translate(4635.66 -1131.83)" fill="#00979e" stroke="rgba(0,0,0,0)" stroke-width="1"/>
    <path id="Path_1519" data-name="Path 1519" d="M436.121,406.041h10.05l.914-20.232a2.523,2.523,0,0,0-2.525-2.569h-5.714c-2.774,0-4.667,7.2-3.375,17.486.19,1.56.418,3.379.65,5.315" transform="translate(4645.056 -1137.688)" fill="#00979e" stroke="rgba(0,0,0,0)" stroke-width="1"/>
    <rect id="Rectangle_186" data-name="Rectangle 186" width="3.44" height="1.289" transform="translate(5072.237 -748.77)" fill="#00979e" stroke="rgba(0,0,0,0)" stroke-width="1"/>
    <rect id="Rectangle_187" data-name="Rectangle 187" width="1.289" height="5.278" transform="translate(5075.646 -748.77)" fill="#00979e" stroke="rgba(0,0,0,0)" stroke-width="1"/>
    <path id="Path_1578" data-name="Path 1578" d="M442.052,383.24h-2.572a2.529,2.529,0,0,0-2.525,2.576v20.225h7.622V385.816a2.532,2.532,0,0,0-2.525-2.576" transform="translate(4647.564 -1137.688)" fill="#00979e" stroke="rgba(0,0,0,0)" stroke-width="1"/>
    <path id="Path_1579" data-name="Path 1579" d="M436.955,397.407v-7.631h15.521l1.772,7.631Z" transform="translate(4647.564 -1129.054)" fill="#00979e" stroke="rgba(0,0,0,0)" stroke-width="1"/>
  </g>
</svg>
