<svg id="Layer_1" data-name="Layer 1" xmlns="http://www.w3.org/2000/svg" viewBox="0 0 37 33"><defs><style>.cls-1{fill:#00979e;}.cls-2{fill:#fdffff;}</style></defs><polygon class="cls-1" points="25.9 8.17 25.56 11.06 23.95 13.54 23.96 19.91 26.34 23 29.72 22.84 32.76 21.25 32.03 20.71 32.61 12.86 31.8 10.48 30.81 8.69 25.9 8.17"/><rect class="cls-2" x="27.39" y="13.76" width="4.66" height="5.72"/><path class="cls-1" d="M31.8,10.48a2.09,2.09,0,0,1-.52-1.1c-.06-.3,0-.42.31-.4s.54-.17.54-.54c0-.76,0-1.51,0-2.27,0-.38-.17-.56-.54-.56H25.14c-.31,0-.52.14-.52.47V8.57c0,.21.11.4.32.4.53,0,.4.3.34.58a2.07,2.07,0,0,1-.38,1,4.25,4.25,0,0,0-.95,3c0,2.07,0,4.14,0,6.37l-.95-1L14.68,10c-.59-.64-.59-.63,0-1.25,1.42-1.38,1.39-.95.07-2.42-.36-.41-.64-.4-1,0-1,1-2,1.94-3.07,2.93-.24.24-.39.31-.65,0C9.37,8.52,8.67,7.79,8,7.06c-.22-.22-.25-.35,0-.57.48-.42.94-.87,1.4-1.32C10.58,4,10.62,4.28,9.41,3,9,2.5,8.86,2.5,8.36,3c-1.48,1.4-2.95,2.81-4.44,4.2-1.28,1.2-1.22,1,0,2.29.33.36.6.38.94,0,.65-.63,1.32-1.23,2-1.88.25-.25.39-.23.62,0,.65.73,1.32,1.45,2,2.14.28.28.33.44,0,.74-1.05,1-2.05,2-3.09,2.91-.36.33-.37.61,0,.94a8.6,8.6,0,0,1,.77.83.53.53,0,0,0,.9,0c.35-.35.73-.66,1.07-1s.4-.28.66,0c.84.94,1.72,1.85,2.58,2.77l8.56,9.11c.29.31.54.45.9.1s.51-.73.83-.67.54.5.8.77l.08.08c.57.61.61.63,1.2.05.26-.26.38-.22.61,0,1,1.11,2.06,2.2,3.09,3.3.13.14.26.27.38.41s.45.49.76.22.06-.57-.16-.81l-.73-.78-3.05-3.25c.14-.12.28-.23.4-.35.46-.45.46-.57,0-1.06-.23-.24-.47-.48-.69-.74s-.33-.18-.16-.4a.38.38,0,0,1,.53-.14,2,2,0,0,0,.72.15c1.39,0,2.79,0,4.18,0a2.33,2.33,0,0,0,2.24-1.75,7.54,7.54,0,0,0,.1-1.58c0-2,0-4,0-6A3.93,3.93,0,0,0,31.8,10.48Zm-27.19-2c-.13.13-.24.27-.44.05s-.14-.33,0-.5L8.67,3.84c.07-.07.13-.22.27-.11s.21.22.32.34a1.29,1.29,0,0,1-.19.21Q6.85,6.41,4.61,8.52Zm22.1-2c1.38,0,2.75,0,4.13,0,.37,0,.48.1.47.47,0,1.24,0,1.24-1.23,1.24H28.39c-.83,0-1.66,0-2.49,0-.32,0-.47,0-.47-.41C25.42,6.47,25.41,6.47,26.71,6.47Zm-1.15,4.59a2.73,2.73,0,0,0,.57-1.68c0-.32.14-.41.45-.4.58,0,1.16,0,1.75,0H30c.26,0,.4,0,.42.35a2.67,2.67,0,0,0,.78,1.76,3.15,3.15,0,0,1,.78,1.3c.11.36.08.58-.43.56-1,0-2,0-3.05,0-.83,0-1.18.33-1.14,1.17,0,.54-.11.75-.66.66a4.28,4.28,0,0,0-.62,0c-1.33,0-1.33,0-1.32-1.3A3.53,3.53,0,0,1,25.56,11.06ZM7.79,14.23l-.27.22a5.11,5.11,0,0,1-.4-.43c-.12-.16,0-.23.14-.31C9.51,11.56,11.77,9.43,14,7.27c.23-.22.34-.14.53.05s.18.33,0,.53Zm13.79,11c-.2.19-.3.17-.49,0q-5.4-5.79-10.83-11.55c-.17-.18-.28-.3,0-.53,1.09-1,2.17-2,3.26-3.09.86.91,1.69,1.81,2.53,2.68.22.22.13.34,0,.5l-1.31,1.24c-.23.22-.47.45-.17.76s.54.05.76-.16c.44-.42.89-.83,1.31-1.26.19-.2.31-.18.49,0,.6.67,1.22,1.33,1.85,2,.18.18.17.28,0,.44L17.5,17.51c-.23.21-.39.45-.14.72s.51.08.73-.13c.43-.41.88-.82,1.31-1.24.19-.19.31-.27.53,0,.58.65,1.18,1.28,1.78,1.9.19.19.19.3,0,.48-.46.41-.9.85-1.36,1.27-.22.21-.42.44-.16.72s.51.12.73-.09c.44-.42.89-.82,1.31-1.26.21-.21.34-.26.57,0,.58.66,1.19,1.31,1.82,1.94.21.22.18.34,0,.54C23.56,23.27,22.56,24.22,21.58,25.18Zm2.79.36c-.23.21-.35.23-.58,0-.65-.69-.66-.68,0-1.33l.54-.5C25.37,24.63,25.36,24.62,24.37,25.54Zm6-3.36c-1.3.05-2.61,0-3.91,0a1.3,1.3,0,0,1-.8-.41,2.57,2.57,0,0,1-.9-2.54,7.69,7.69,0,0,0,0-1c0-.76,0-1.51,0-2.27,0-.29.09-.39.38-.38.61,0,1.21,0,1.82,0,.32,0,.41.08.41.4,0,1.06,0,2.11,0,3.17,0,.77.34,1.11,1.1,1.11h3.17c.32,0,.42.08.39.41A1.6,1.6,0,0,1,30.38,22.18Zm1.67-3.09c0,.28-.07.4-.38.39-1,0-2,0-3.05,0-.37,0-.44-.16-.43-.48,0-.81,0-1.62,0-2.43s0-1.57,0-2.36c0-.34.1-.47.45-.46,1,0,2,0,3,0,.32,0,.42.1.42.42C32,15.81,32,17.45,32.05,19.09Z"/><polygon class="cls-1" points="13.32 8.98 25.67 21.77 20.83 26.09 9.26 12.83 13.32 8.98"/></svg>